# xmcd
#
# Track frame offsets:
#	27940
#	45612
#	59077
#	73492
#	89090
#	101520
#	116525
#	127607
#	139652
#	157890
#	175655
#	188692
#
# Disc length: 2729 seconds
#
# Revision: 1
# Processed by: cddbd v1.5.2PL0 Copyright (c) Steve Scherf et al.
# Submitted via: audiograbber 1.83.01
#
DISCID=ae09350c
DTITLE=Shivers, The - Shivers
DYEAR=1994
DGENRE=Country-Folk
TTITLE0=Silver City Train
TTITLE1=Rivers
TTITLE2=Almost Goen
TTITLE3=Never Leave Nevada
TTITLE4=Love Other Gone
TTITLE5=When I Fall
TTITLE6=Good As Things Are
TTITLE7=Things Change
TTITLE8=$gentle
TTITLE9=Red Cats
TTITLE10=Heart of Texas Blues
TTITLE11=Dreamtime with a Wanted Man
EXTD=
EXTT0=
EXTT1=
EXTT2=
EXTT3=
EXTT4=
EXTT5=
EXTT6=
EXTT7=
EXTT8=
EXTT9=
EXTT10=
EXTT11=
PLAYORDER=
